HIERARCHY
ROOT Hips
{
	OFFSET 1.546620 89.095070 2.466652
	CHANNELS 6 Xposition Yposition Zposition Zrotation Yrotation Xrotation 
	JOINT Spine
	{
		OFFSET 0.000000 8.814246 -2.080107
		CHANNELS 3 Zrotation Yrotation Xrotation
		JOINT Spine1
		{
			OFFSET 0.000000 8.844141 0.000000
			CHANNELS 3 Zrotation Yrotation Xrotation
			JOINT Spine2
			{
				OFFSET -0.000000 11.682268 -0.000000
				CHANNELS 3 Zrotation Yrotation Xrotation
				JOINT Spine3
				{
					OFFSET -0.000000 11.746700 -0.000000
					CHANNELS 3 Zrotation Yrotation Xrotation
					JOINT Neck
					{
						OFFSET 0.000000 17.658264 -0.000000
						CHANNELS 3 Zrotation Yrotation Xrotation
						JOINT Neck1
						{
							OFFSET 0.000000 5.101515 0.000000
							CHANNELS 3 Zrotation Yrotation Xrotation
							JOINT Head
							{
								OFFSET -0.000000 5.101515 -0.000000
								CHANNELS 3 Zrotation Yrotation Xrotation
								JOINT HeadEnd
								{
									OFFSET 0.000000 11.655085 -0.000000
									CHANNELS 3 Zrotation Yrotation Xrotation
									End Site
									{
										OFFSET 0.000000 0.000000 0.000000
									}
								}
							}
						}
					}
					JOINT RightShoulder
					{
						OFFSET -2.625389 11.175210 -0.000000
						CHANNELS 3 Zrotation Yrotation Xrotation
						JOINT RightArm
						{
							OFFSET -0.000000 10.434715 0.000000
							CHANNELS 3 Zrotation Yrotation Xrotation
							JOINT RightForeArm
							{
								OFFSET 0.000000 29.628420 0.000000
								CHANNELS 3 Zrotation Yrotation Xrotation
								JOINT RightHand
								{
									OFFSET 0.000000 22.857611 0.000000
									CHANNELS 3 Zrotation Yrotation Xrotation
									JOINT RightHandThumb1
									{
										OFFSET -2.867323 3.959563 2.944291
										CHANNELS 3 Zrotation Yrotation Xrotation
										JOINT RightHandThumb2
										{
											OFFSET -0.000000 3.350399 0.000000
											CHANNELS 3 Zrotation Yrotation Xrotation
											JOINT RightHandThumb3
											{
												OFFSET -0.000000 3.756509 0.000000
												CHANNELS 3 Zrotation Yrotation Xrotation
												JOINT RightHandThumb4
												{
													OFFSET 0.000000 3.147345 0.000000
													CHANNELS 3 Zrotation Yrotation Xrotation
													End Site
													{
														OFFSET 0.000000 0.000000 0.000000
													}
												}
											}
										}
									}
									JOINT RightHandIndex1
									{
										OFFSET -0.086752 10.030893 2.345280
										CHANNELS 3 Zrotation Yrotation Xrotation
										JOINT RightHandIndex2
										{
											OFFSET 0.000000 4.061090 -0.000000
											CHANNELS 3 Zrotation Yrotation Xrotation
											JOINT RightHandIndex3
											{
												OFFSET -0.000000 3.248873 0.000000
												CHANNELS 3 Zrotation Yrotation Xrotation
												JOINT RightHandIndex4
												{
													OFFSET 0.000000 2.639709 -0.000000
													CHANNELS 3 Zrotation Yrotation Xrotation
													End Site
													{
														OFFSET 0.000000 0.000000 0.000000
													}
												}
											}
										}
									}
									JOINT RightHandMiddle1
									{
										OFFSET 0.104102 9.502952 0.006768
										CHANNELS 3 Zrotation Yrotation Xrotation
										JOINT RightHandMiddle2
										{
											OFFSET 0.000000 4.568727 0.000000
											CHANNELS 3 Zrotation Yrotation Xrotation
											JOINT RightHandMiddle3
											{
												OFFSET 0.000000 3.654981 -0.000000
												CHANNELS 3 Zrotation Yrotation Xrotation
												JOINT RightHandMiddle4
												{
													OFFSET -0.000000 2.741236 0.000000
													CHANNELS 3 Zrotation Yrotation Xrotation
													End Site
													{
														OFFSET 0.000000 0.000000 0.000000
													}
												}
											}
										}
									}
									JOINT RightHandRing1
									{
										OFFSET 0.086752 8.921708 -2.267442
										CHANNELS 3 Zrotation Yrotation Xrotation
										JOINT RightHandRing2
										{
											OFFSET -0.000000 4.061090 0.000000
											CHANNELS 3 Zrotation Yrotation Xrotation
											JOINT RightHandRing3
											{
												OFFSET -0.000000 3.654981 0.000000
												CHANNELS 3 Zrotation Yrotation Xrotation
												JOINT RightHandRing4
												{
													OFFSET -0.000000 2.741236 0.000000
													CHANNELS 3 Zrotation Yrotation Xrotation
													End Site
													{
														OFFSET 0.000000 0.000000 0.000000
													}
												}
											}
										}
									}
									JOINT RightHandPinky1
									{
										OFFSET -0.173504 7.976997 -4.467199
										CHANNELS 3 Zrotation Yrotation Xrotation
										JOINT RightHandPinky2
										{
											OFFSET -0.000000 3.350399 0.000000
											CHANNELS 3 Zrotation Yrotation Xrotation
											JOINT RightHandPinky3
											{
												OFFSET -0.000000 2.842763 0.000000
												CHANNELS 3 Zrotation Yrotation Xrotation
												JOINT RightHandPinky4
												{
													OFFSET 0.000000 2.639709 -0.000000
													CHANNELS 3 Zrotation Yrotation Xrotation
													End Site
													{
														OFFSET 0.000000 0.000000 0.000000
													}
												}
											}
										}
									}
									JOINT RightForeArmEnd
									{
										OFFSET 0.000000 0.000000 0.000000
										CHANNELS 3 Zrotation Yrotation Xrotation
										End Site
										{
											OFFSET 0.000000 0.000000 0.000000
										}
									}
								}
								JOINT RightArmEnd
								{
									OFFSET 0.000000 0.000000 0.000000
									CHANNELS 3 Zrotation Yrotation Xrotation
									End Site
									{
										OFFSET 0.000000 0.000000 0.000000
									}
								}
							}
						}
					}
					JOINT LeftShoulder
					{
						OFFSET 2.625389 11.175210 0.000000
						CHANNELS 3 Zrotation Yrotation Xrotation
						JOINT LeftArm
						{
							OFFSET -0.000000 10.813635 -0.000000
							CHANNELS 3 Zrotation Yrotation Xrotation
							JOINT LeftForeArm
							{
								OFFSET 0.000000 28.724781 0.000000
								CHANNELS 3 Zrotation Yrotation Xrotation
								JOINT LeftHand
								{
									OFFSET 0.644384 25.716167 -0.328871
									CHANNELS 3 Zrotation Yrotation Xrotation
									JOINT LeftHandThumb1
									{
										OFFSET 2.867323 3.959563 2.944291
										CHANNELS 3 Zrotation Yrotation Xrotation
										JOINT LeftHandThumb2
										{
											OFFSET 0.000000 3.350399 -0.000000
											CHANNELS 3 Zrotation Yrotation Xrotation
											JOINT LeftHandThumb3
											{
												OFFSET 0.000000 3.756509 0.000000
												CHANNELS 3 Zrotation Yrotation Xrotation
												JOINT LeftHandThumb4
												{
													OFFSET -0.000000 3.100000 0.000000
													CHANNELS 3 Zrotation Yrotation Xrotation
													End Site
													{
														OFFSET 0.000000 0.000000 0.000000
													}
												}
											}
										}
									}
									JOINT LeftHandIndex1
									{
										OFFSET 0.086752 10.030893 2.345280
										CHANNELS 3 Zrotation Yrotation Xrotation
										JOINT LeftHandIndex2
										{
											OFFSET -0.000000 4.061090 0.000000
											CHANNELS 3 Zrotation Yrotation Xrotation
											JOINT LeftHandIndex3
											{
												OFFSET 0.000000 3.248873 0.000000
												CHANNELS 3 Zrotation Yrotation Xrotation
												JOINT LeftHandIndex4
												{
													OFFSET -0.000000 2.639709 -0.000000
													CHANNELS 3 Zrotation Yrotation Xrotation
													End Site
													{
														OFFSET 0.000000 0.000000 0.000000
													}
												}
											}
										}
									}
									JOINT LeftHandMiddle1
									{
										OFFSET -0.104102 9.502952 0.006768
										CHANNELS 3 Zrotation Yrotation Xrotation
										JOINT LeftHandMiddle2
										{
											OFFSET -0.000000 4.568727 -0.000000
											CHANNELS 3 Zrotation Yrotation Xrotation
											JOINT LeftHandMiddle3
											{
												OFFSET 0.000000 3.654981 0.000000
												CHANNELS 3 Zrotation Yrotation Xrotation
												JOINT LeftHandMiddle4
												{
													OFFSET 0.000000 2.741236 0.000000
													CHANNELS 3 Zrotation Yrotation Xrotation
													End Site
													{
														OFFSET 0.000000 0.000000 0.000000
													}
												}
											}
										}
									}
									JOINT LeftHandRing1
									{
										OFFSET -0.086752 8.921708 -2.267442
										CHANNELS 3 Zrotation Yrotation Xrotation
										JOINT LeftHandRing2
										{
											OFFSET 0.000000 4.061090 0.000000
											CHANNELS 3 Zrotation Yrotation Xrotation
											JOINT LeftHandRing3
											{
												OFFSET 0.000000 3.654981 0.000000
												CHANNELS 3 Zrotation Yrotation Xrotation
												JOINT LeftHandRing4
												{
													OFFSET -0.000000 2.741236 0.000000
													CHANNELS 3 Zrotation Yrotation Xrotation
													End Site
													{
														OFFSET 0.000000 0.000000 0.000000
													}
												}
											}
										}
									}
									JOINT LeftHandPinky1
									{
										OFFSET 0.173504 7.976997 -4.467199
										CHANNELS 3 Zrotation Yrotation Xrotation
										JOINT LeftHandPinky2
										{
											OFFSET -0.000000 3.350399 -0.000000
											CHANNELS 3 Zrotation Yrotation Xrotation
											JOINT LeftHandPinky3
											{
												OFFSET -0.000000 2.842763 0.000000
												CHANNELS 3 Zrotation Yrotation Xrotation
												JOINT LeftHandPinky4
												{
													OFFSET 0.000000 2.639709 0.000000
													CHANNELS 3 Zrotation Yrotation Xrotation
													End Site
													{
														OFFSET 0.000000 0.000000 0.000000
													}
												}
											}
										}
									}
									JOINT LeftForeArmEnd
									{
										OFFSET 0.000000 0.000000 0.000000
										CHANNELS 3 Zrotation Yrotation Xrotation
										End Site
										{
											OFFSET 0.000000 0.000000 0.000000
										}
									}
								}
								JOINT LeftArmEnd
								{
									OFFSET 0.000000 0.000000 0.000000
									CHANNELS 3 Zrotation Yrotation Xrotation
									End Site
									{
										OFFSET 0.000000 0.000000 0.000000
									}
								}
							}
						}
					}
				}
			}
		}
	}
	JOINT RightUpLeg
	{
		OFFSET -11.289943 -0.000000 -0.000000
		CHANNELS 3 Zrotation Yrotation Xrotation
		JOINT RightLeg
		{
			OFFSET 0.000000 -38.200325 0.000000
			CHANNELS 3 Zrotation Yrotation Xrotation
			JOINT RightFoot
			{
				OFFSET 0.000000 -39.900856 -0.000000
				CHANNELS 3 Zrotation Yrotation Xrotation
				JOINT RightToeBase
				{
					OFFSET 0.000000 0.000000 15.261641
					CHANNELS 3 Zrotation Yrotation Xrotation
					JOINT RightToeBaseEnd
					{
						OFFSET -0.000000 -0.000000 7.370709
						CHANNELS 3 Zrotation Yrotation Xrotation
						End Site
						{
							OFFSET 0.000000 0.000000 0.000000
						}
					}
				}
				JOINT RightLegEnd
				{
					OFFSET 0.000000 0.000000 0.000000
					CHANNELS 3 Zrotation Yrotation Xrotation
					End Site
					{
						OFFSET 0.000000 0.000000 0.000000
					}
				}
			}
			JOINT RightUpLegEnd
			{
				OFFSET 0.000000 0.000000 0.000000
				CHANNELS 3 Zrotation Yrotation Xrotation
				End Site
				{
					OFFSET 0.000000 0.000000 0.000000
				}
			}
		}
	}
	JOINT LeftUpLeg
	{
		OFFSET 11.315661 -0.000000 0.000000
		CHANNELS 3 Zrotation Yrotation Xrotation
		JOINT LeftLeg
		{
			OFFSET -0.000000 -38.200325 -0.000000
			CHANNELS 3 Zrotation Yrotation Xrotation
			JOINT LeftFoot
			{
				OFFSET 0.000000 -39.900856 -0.000000
				CHANNELS 3 Zrotation Yrotation Xrotation
				JOINT LeftToeBase
				{
					OFFSET 0.000000 0.000000 15.261641
					CHANNELS 3 Zrotation Yrotation Xrotation
					JOINT LeftToeBaseEnd
					{
						OFFSET 0.000000 -0.000000 7.539996
						CHANNELS 3 Zrotation Yrotation Xrotation
						End Site
						{
							OFFSET 0.000000 0.000000 0.000000
						}
					}
				}
				JOINT LeftLegEnd
				{
					OFFSET 0.000000 0.000000 0.000000
					CHANNELS 3 Zrotation Yrotation Xrotation
					End Site
					{
						OFFSET 0.000000 0.000000 0.000000
					}
				}
			}
			JOINT LeftUpLegEnd
			{
				OFFSET 0.000000 0.000000 0.000000
				CHANNELS 3 Zrotation Yrotation Xrotation
				End Site
				{
					OFFSET 0.000000 0.000000 0.000000
				}
			}
		}
	}
}
MOTION
Frames: 5
Frame Time: 0.016667
13.048645 87.709457 7.535611 -1.697129 -13.448685 -12.767028 0.938501 0.352132 7.670851 -0.433717 0.301391 5.011249 0.506523 -1.123678 6.966591 -1.562153 -0.027272 5.000938 3.837275 -0.552120 -1.235341 1.083449 1.600113 -6.554760 -0.178299 -1.127086 -18.666357 0.000000 0.000000 0.000000 89.053200 -0.392506 10.678432 59.113972 -22.051130 4.172079 -0.445536 19.993296 65.007851 -25.855820 -11.445030 4.736262 10.080894 -1.770404 40.156223 0.000004 -0.000003 -25.077364 0.000001 0.000032 -17.322189 -0.000007 -0.000002 -0.000012 9.114906 -0.076642 -2.287665 5.951173 -0.026389 -0.035889 5.803290 -0.009957 -0.042156 -0.000006 0.000027 -0.000002 7.650951 -0.046036 -4.787527 5.220529 -0.018488 -0.016996 5.380202 0.006068 0.003959 -0.000008 0.000228 0.000007 6.587425 0.022035 -7.566284 5.634212 0.036674 -0.058335 5.627891 0.009561 -0.048048 -0.000001 0.001226 0.000010 4.053749 -0.024712 -10.235348 5.593248 0.058291 -0.025085 5.601413 0.019777 -0.045882 -0.000085 0.000003 -0.000029 0.000000 0.000000 0.000000 0.000000 0.000000 0.000000 -86.062691 0.220452 6.036984 -62.643208 4.704466 -4.446941 -0.920419 -17.137407 83.347122 15.705881 13.640830 -2.716366 -8.198114 1.396604 41.087246 0.000006 -0.000005 -20.655653 -0.000012 -0.000019 -14.279630 0.000013 -0.000018 -0.000946 -1.443998 -0.001481 0.050335 -4.897707 -0.060185 -0.271478 -5.313391 -0.036462 -0.203366 0.000013 0.000931 0.000022 -2.408927 -0.015453 -2.767617 -5.468343 -0.023167 -0.092012 -5.397175 -0.010554 -0.054134 0.001956 -0.000037 -0.000013 -8.813257 0.051422 -6.378662 -8.748253 0.028320 -0.022761 -8.180301 0.002480 -0.017743 -0.000305 0.000023 0.000007 -13.193485 0.025050 -11.018079 -11.236519 0.032834 -0.014831 -11.230557 0.017090 -0.055841 0.001417 0.000011 -0.000051 0.000000 0.000000 0.000000 0.000000 0.000000 0.000000 -7.640776 -6.251987 6.298399 -0.308463 -1.000094 16.232565 3.936593 -11.367057 22.208771 -1.265143 1.088056 -20.736700 0.000000 0.000000 0.000000 0.000000 0.000000 0.000000 0.000000 0.000000 0.000000 2.911879 1.902331 9.291383 0.123508 0.321590 19.055660 0.269045 12.676902 12.407468 0.420730 -0.242161 -20.892273 0.000000 0.000000 0.000000 0.000000 0.000000 0.000000 0.000000 0.000000 0.000000 
12.795959 87.718567 7.509424 -1.570335 -13.760468 -12.822037 0.910281 0.374001 7.674212 -0.474861 0.320875 4.963832 0.508410 -0.991964 6.849750 -1.567561 0.047935 5.149763 3.868870 -0.433291 -0.891933 1.120054 1.716987 -6.331609 -0.150533 -1.100227 -18.759481 0.000000 0.000000 0.000000 88.997261 -0.395915 10.656834 59.010639 -22.537624 3.581491 -0.402929 19.490751 65.020088 -25.817661 -11.639634 4.843838 10.252337 -1.782242 40.081108 0.000005 -0.000005 -25.513678 -0.000001 0.000032 -17.617807 -0.000006 -0.000002 -0.000012 9.827478 -0.079828 -2.686409 6.389212 -0.020153 -0.066200 6.241461 -0.004049 -0.068736 -0.000006 0.000026 -0.000003 8.297575 -0.047772 -5.097598 5.636878 -0.016372 -0.027552 5.809655 0.008022 -0.003745 -0.000009 0.000238 0.000007 7.151014 0.023271 -7.769323 6.018548 0.033525 -0.047227 6.001983 0.007350 -0.039754 0.000001 0.001179 0.000009 4.457722 -0.021900 -10.313885 5.882817 0.052225 0.002278 5.871217 0.014790 -0.018525 -0.000099 0.000003 -0.000031 0.000000 0.000000 0.000000 0.000000 0.000000 0.000000 -85.893906 0.181639 5.902857 -62.516808 4.278122 -4.302098 -0.913199 -16.994617 84.972961 17.392553 15.304602 -2.050184 -8.120982 1.393079 41.109634 0.000005 -0.000004 -20.510916 -0.000009 -0.000020 -14.179408 -0.000145 -0.000019 -0.000788 -0.921982 -0.005938 0.119662 -4.614361 -0.067808 -0.310443 -5.036139 -0.044399 -0.244856 0.000015 0.000852 0.000021 -1.853111 -0.016376 -2.778423 -5.157449 -0.026202 -0.107148 -5.096627 -0.012920 -0.068168 0.002222 -0.000037 -0.000013 -8.175201 0.050529 -6.424864 -8.411176 0.032112 0.002718 -7.853993 0.005494 0.001337 -0.000361 0.000024 0.000007 -12.488197 0.028771 -11.116060 -10.912597 0.042795 0.068571 -10.900118 0.026167 0.009448 0.001513 0.000011 -0.000050 0.000000 0.000000 0.000000 0.000000 0.000000 0.000000 -7.712637 -6.070258 6.362351 -0.314551 -1.016807 16.080221 3.949014 -11.013663 21.991289 -1.281101 1.114209 -20.575975 0.000000 0.000000 0.000000 0.000000 0.000000 0.000000 0.000000 0.000000 0.000000 3.008680 2.043219 9.411384 0.132906 0.344259 18.946270 -0.079788 13.002451 12.399939 0.454960 -0.273904 -20.809418 0.000000 0.000000 0.000000 0.000000 0.000000 0.000000 0.000000 0.000000 0.000000 
12.516608 87.709198 7.476349 -1.428906 -14.018517 -12.906038 0.883577 0.385999 7.694125 -0.530192 0.341871 4.918136 0.535819 -0.907604 6.757653 -1.596918 0.118119 5.299657 3.897274 -0.288490 -0.590544 1.170767 1.865318 -6.130625 -0.134996 -1.068558 -18.856916 0.000000 0.000000 0.000000 88.942299 -0.397327 10.698320 58.857029 -23.133289 3.157163 -0.337489 19.126228 64.328270 -25.236486 -11.652006 4.582326 10.313443 -1.783088 40.055965 0.000006 -0.000006 -25.681471 -0.000002 0.000032 -17.721056 -0.000006 -0.000003 -0.000012 10.041211 -0.080145 -3.011059 6.617181 -0.021185 -0.081368 6.472952 -0.004466 -0.082114 -0.000006 0.000025 -0.000003 8.461921 -0.048249 -5.365871 5.837070 -0.017095 -0.031330 6.026780 0.007458 -0.006050 -0.000011 0.000247 0.000008 7.301770 0.024357 -7.969303 6.180706 0.035256 -0.043753 6.155789 0.008571 -0.037587 0.000003 0.001165 0.000008 4.531240 -0.017950 -10.460529 5.975440 0.059506 0.011172 5.937517 0.020153 -0.007686 -0.000110 0.000003 -0.000031 0.000000 0.000000 0.000000 0.000000 0.000000 0.000000 -85.784454 0.149148 5.854257 -62.407455 3.948503 -4.017808 -0.924056 -16.928846 85.928658 18.855268 16.642641 -1.747984 -7.979349 1.379775 41.164318 0.000004 -0.000004 -20.205305 -0.000005 -0.000021 -13.965305 -0.000348 -0.000020 -0.000658 -0.062468 -0.008186 0.176125 -4.272785 -0.077454 -0.350747 -4.703682 -0.054326 -0.289394 0.000015 0.000764 0.000021 -0.961190 -0.016975 -2.790865 -4.774693 -0.030319 -0.123920 -4.725513 -0.015895 -0.083447 0.002385 -0.000038 -0.000012 -7.210401 0.049553 -6.453827 -7.977375 0.038158 0.031425 -7.435244 0.009991 0.023404 -0.000462 0.000025 0.000007 -11.473727 0.032789 -11.190897 -10.482150 0.058992 0.162206 -10.455753 0.039658 0.083172 0.001563 0.000011 -0.000049 0.000000 0.000000 0.000000 0.000000 0.000000 0.000000 -7.758341 -5.881739 6.434796 -0.320177 -1.032248 15.958492 3.946526 -10.685446 21.709200 -1.302984 1.144174 -20.399017 0.000000 0.000000 0.000000 0.000000 0.000000 0.000000 0.000000 0.000000 0.000000 3.130863 2.160551 9.538061 0.142005 0.365126 18.870173 -0.479521 13.317360 12.320594 0.492099 -0.310200 -20.684118 0.000000 0.000000 0.000000 0.000000 0.000000 0.000000 0.000000 0.000000 0.000000 
12.210540 87.681984 7.436472 -1.279387 -14.217772 -13.014551 0.855991 0.388939 7.729334 -0.597234 0.362833 4.873349 0.583723 -0.878150 6.691366 -1.636814 0.172895 5.434666 3.901042 -0.130646 -0.373890 1.224030 2.032290 -5.981256 -0.136011 -1.035457 -18.940186 0.000000 0.000000 0.000000 88.909721 -0.402421 10.777833 58.624680 -23.714525 2.967046 -0.246485 18.926283 63.020641 -24.148506 -11.511383 3.932269 10.250728 -1.772135 40.086704 0.000007 -0.000007 -25.545721 -0.000003 0.000032 -17.608690 -0.000005 -0.000003 -0.000012 9.695508 -0.077565 -3.251299 6.591033 -0.029066 -0.079101 6.455925 -0.010945 -0.079876 -0.000005 0.000025 -0.000004 8.094856 -0.047338 -5.589454 5.782826 -0.020447 -0.028090 5.989966 0.004687 -0.002595 -0.000012 0.000253 0.000009 6.998937 0.025028 -8.173516 6.092328 0.041544 -0.048121 6.062652 0.012910 -0.041491 0.000006 0.001191 0.000007 4.254555 -0.014576 -10.690084 5.855335 0.079151 0.000499 5.788488 0.035000 -0.014128 -0.000124 0.000003 -0.000031 0.000000 0.000000 0.000000 0.000000 0.000000 0.000000 -85.744957 0.122829 5.890735 -62.314899 3.665012 -3.634642 -0.955582 -16.937456 86.174850 19.889925 17.543846 -1.834935 -7.766421 1.356731 41.254375 0.000004 -0.000003 -19.718008 -0.000002 -0.000023 -13.622370 -0.000569 -0.000021 -0.000609 1.135770 -0.007702 0.230195 -3.860241 -0.088347 -0.388279 -4.300742 -0.065305 -0.332785 0.000016 0.000658 0.000020 0.257149 -0.016983 -2.801776 -4.313866 -0.035051 -0.140377 -4.273276 -0.019161 -0.098468 0.002460 -0.000038 -0.000009 -5.921483 0.048452 -6.491656 -7.443657 0.045959 0.060879 -6.916251 0.015528 0.046059 -0.000599 0.000026 0.000007 -10.148653 0.036343 -11.285397 -9.943043 0.080092 0.258089 -9.896047 0.056539 0.158599 0.001573 0.000012 -0.000049 0.000000 0.000000 0.000000 0.000000 0.000000 0.000000 -7.778215 -5.702731 6.519659 -0.325027 -1.046328 15.862945 3.931691 -10.407953 21.374752 -1.327879 1.176043 -20.216869 0.000000 0.000000 0.000000 0.000000 0.000000 0.000000 0.000000 0.000000 0.000000 3.275412 2.258262 9.678789 0.150223 0.384764 18.812672 -0.899426 13.599228 12.187383 0.530223 -0.347667 -20.529642 0.000000 0.000000 0.000000 0.000000 0.000000 0.000000 0.000000 0.000000 0.000000 
11.875661 87.641403 7.392457 -1.139437 -14.364528 -13.134721 0.836687 0.385139 7.775403 -0.663205 0.381839 4.800889 0.642133 -0.891599 6.667882 -1.672520 0.207602 5.529210 3.880906 0.037587 -0.220691 1.270370 2.213623 -5.877360 -0.159354 -1.006253 -18.996527 0.000000 0.000000 0.000000 88.929192 -0.415410 10.852438 58.312168 -24.216675 2.986265 -0.140058 18.868174 61.351597 -22.755354 -11.216000 3.025796 10.112531 -1.752868 40.152782 0.000008 -0.000008 -25.218794 -0.000005 0.000033 -17.364687 -0.000004 -0.000002 -0.000012 8.991780 -0.073502 -3.449029 6.408476 -0.039035 -0.066727 6.285553 -0.019258 -0.068125 -0.000005 0.000024 -0.000005 7.398355 -0.045419 -5.792856 5.576081 -0.024514 -0.021356 5.798451 0.001389 0.003789 -0.000014 0.000256 0.000010 6.416484 0.025194 -8.396478 5.862034 0.049089 -0.055274 5.829544 0.017958 -0.047334 0.000007 0.001242 0.000007 3.779194 -0.012340 -10.985518 5.623014 0.101818 -0.015342 5.528269 0.052074 -0.025419 -0.000148 0.000003 -0.000031 0.000000 0.000000 0.000000 0.000000 0.000000 0.000000 -85.786102 0.099967 5.969566 -62.235798 3.375607 -3.236697 -1.006081 -16.987581 85.792114 20.423204 18.040005 -2.275360 -7.507161 1.326114 41.369892 0.000004 -0.000003 -19.105984 0.000002 -0.000025 -13.191789 -0.000785 -0.000022 -0.000641 2.579015 -0.005273 0.331148 -3.415502 -0.098023 -0.417963 -3.864939 -0.074911 -0.369926 0.000015 0.000541 0.000020 1.703023 -0.016439 -2.774693 -3.823133 -0.039285 -0.153948 -3.785427 -0.022012 -0.111246 0.002471 -0.000039 -0.000005 -4.388934 0.047111 -6.533748 -6.859001 0.053525 0.087211 -6.343509 0.020776 0.066029 -0.000751 0.000027 0.000006 -8.580121 0.038900 -11.411106 -9.336394 0.100610 0.343098 -9.268128 0.072732 0.225186 0.001554 0.000012 -0.000048 0.000000 0.000000 0.000000 0.000000 0.000000 0.000000 -7.760215 -5.541337 6.631413 -0.328740 -1.059244 15.765224 3.901798 -10.180795 21.009989 -1.351811 1.206610 -20.034697 0.000000 0.000000 0.000000 0.000000 0.000000 0.000000 0.000000 0.000000 0.000000 3.446666 2.341977 9.842513 0.157632 0.405107 18.751751 -1.313305 13.859779 12.027230 0.570233 -0.383010 -20.361996 0.000000 0.000000 0.000000 0.000000 0.000000 0.000000 0.000000 0.000000 0.000000 
